<?xml version="1.0" encoding="UTF-8" standalone="no"?>
<!-- Created with Inkscape (http://www.inkscape.org/) -->

<svg
   xmlns:dc="http://purl.org/dc/elements/1.1/"
   xmlns:cc="http://creativecommons.org/ns#"
   xmlns:rdf="http://www.w3.org/1999/02/22-rdf-syntax-ns#"
   xmlns:svg="http://www.w3.org/2000/svg"
   xmlns="http://www.w3.org/2000/svg"
   xmlns:sodipodi="http://sodipodi.sourceforge.net/DTD/sodipodi-0.dtd"
   xmlns:inkscape="http://www.inkscape.org/namespaces/inkscape"

   viewBox="0 0 417.98034 80.05552"
   id="svg4161"
   version="1.1"
   inkscape:version="0.91 r13725"
   sodipodi:docname="logo-full.svg">
  <defs
     id="defs4163" />
  <sodipodi:namedview
     id="base"
     pagecolor="#ffffff"
     bordercolor="#666666"
     borderopacity="1.0"
     inkscape:pageopacity="0.0"
     inkscape:pageshadow="2"
     inkscape:zoom="3.959798"
     inkscape:cx="121.96391"
     inkscape:cy="8.8039446"
     inkscape:document-units="px"
     inkscape:current-layer="layer1"
     showgrid="false"
     showguides="true"
     inkscape:window-width="1920"
     inkscape:window-height="1017"
     inkscape:window-x="1592"
     inkscape:window-y="-8"
     inkscape:window-maximized="1"
     inkscape:guide-bbox="true"
     fit-margin-top="0"
     fit-margin-left="0"
     fit-margin-right="0"
     fit-margin-bottom="0">
    <inkscape:grid
       type="xygrid"
       id="grid4747"
       originx="-4.9105766"
       originy="-959.94536" />
    <sodipodi:guide
       position="65.089423,60.054627"
       orientation="0,1"
       id="guide4769" />
    <sodipodi:guide
       position="75.089422,20.054647"
       orientation="0,1"
       id="guide4771" />
  </sodipodi:namedview>
  <metadata
     id="metadata4166">
    <rdf:RDF>
      <cc:Work
         rdf:about="">
        <dc:format>image/svg+xml</dc:format>
        <dc:type
           rdf:resource="http://purl.org/dc/dcmitype/StillImage" />
        <dc:title />
      </cc:Work>
    </rdf:RDF>
  </metadata>
  <g
     inkscape:label="Layer 1"
     inkscape:groupmode="layer"
     id="layer1"
     transform="translate(-4.9105767,-12.36133)">
    <path
       style="fill:#02b367;fill-opacity:1;stroke:none;stroke-width:10;stroke-miterlimit:4;stroke-dasharray:none;stroke-opacity:1"
       d="M 45,12.36133 A 40.089419,40.089419 0 0 0 4.9105767,52.450753 40.089419,40.089419 0 0 0 41.967846,92.38945 c -0.02295,-0.174649 -0.04502,-0.350341 -0.04502,-0.532437 l 0,-4.271248 C 28.40366,83.385135 18.836169,69.232146 18.836169,52.865739 c 0,-17.369615 10.770174,-32.257834 25.609865,-35.391443 L 45,17.356844 45.553966,17.47625 c 14.839691,3.130091 25.609865,18.019884 25.609865,35.389489 0,16.366407 -9.567491,30.519396 -23.086657,34.720026 l 0,4.271248 c 0,0.191457 -0.02166,0.37667 -0.04697,0.559838 A 40.089419,40.089419 0 0 0 85.089423,52.450753 40.089419,40.089419 0 0 0 45,12.36133 Z m 0,12.212792 c -11.626113,2.764927 -20.007519,14.558995 -20.007519,28.291617 0,12.481301 6.93536,23.337306 16.936218,27.2933 l 0,-10.605687 -13.402946,-15.432864 c -0.600239,-0.691252 -0.600239,-1.816292 0,-2.507544 0.600228,-0.691251 1.576486,-0.691251 2.176735,0 l 11.222292,12.925322 0,-12.711956 -7.246634,-8.344783 c -0.600229,-0.691232 -0.600229,-1.814338 0,-2.505589 0.600239,-0.691212 1.576497,-0.691212 2.176736,0 l 5.067944,5.83724 0,-11.672527 c 0,-1.960302 1.378044,-3.545017 3.077174,-3.545017 1.69913,0 3.077174,1.584715 3.077174,3.545017 l 0,11.672527 5.069909,-5.83724 c 0.600239,-0.691212 1.576486,-0.691212 2.176725,0 0.600239,0.691251 0.600239,1.814357 0,2.505589 l -7.246634,8.344783 0,12.711956 11.226211,-12.927276 c 0.600239,-0.691232 1.576497,-0.691232 2.176735,0 0.600229,0.691212 0.600229,1.814357 0,2.505589 l -13.402946,15.432865 0,10.609595 C 58.071878,76.203045 65.007519,65.34704 65.007519,52.865739 65.007519,39.133117 56.626123,27.339049 45,24.574122 Z"
       id="path4745"
       inkscape:connector-curvature="0" />
    <g
       style="font-style:normal;font-weight:normal;font-size:73.94633484px;line-height:125%;font-family:sans-serif;letter-spacing:0px;word-spacing:0px;fill:#000000;fill-opacity:1;stroke:none;stroke-width:1px;stroke-linecap:butt;stroke-linejoin:miter;stroke-opacity:1"
       id="text4777"
       transform="translate(4.545686,0)">
      <path
         d="m 105.19262,72.361885 -15.164773,-39.933909 8.954439,0 8.123984,23.216549 q 2.09419,5.849271 2.52747,9.459932 l 0.28885,0 q 0.32496,-2.599676 2.52746,-9.459932 l 8.12399,-23.216549 9.02665,0 -15.23699,39.933909 -9.17108,0 z"
         style="font-style:normal;font-variant:normal;font-weight:600;font-stretch:normal;font-family:'Open Sans';-inkscape-font-specification:'Open Sans Semi-Bold';letter-spacing:-4.62164593px"
         id="path4818"
         inkscape:connector-curvature="0" />
      <path
         d="m 148.48444,73.084017 q -9.3155,0 -14.58707,-5.415991 -5.23545,-5.452098 -5.23545,-14.984243 0,-9.784891 4.87439,-15.381415 4.87439,-5.596524 13.39555,-5.596524 7.90735,0 12.49289,4.802179 4.58554,4.802178 4.58554,13.215018 l 0,4.58554 -26.61057,0 q 0.18053,5.813164 3.14127,8.954439 2.96074,3.105168 8.34063,3.105168 3.53844,0 6.5714,-0.649919 3.06906,-0.686026 6.5714,-2.23861 l 0,6.896363 q -3.10517,1.480371 -6.28255,2.094183 -3.17738,0.613812 -7.25743,0.613812 z M 146.93186,38.13282 q -4.04394,0 -6.49919,2.563569 -2.41914,2.563569 -2.88853,7.474068 l 18.12552,0 q -0.0722,-4.946605 -2.38304,-7.474068 -2.31082,-2.563569 -6.35476,-2.563569 z"
         style="font-style:normal;font-variant:normal;font-weight:600;font-stretch:normal;font-family:'Open Sans';-inkscape-font-specification:'Open Sans Semi-Bold';letter-spacing:-4.62164593px"
         id="path4820"
         inkscape:connector-curvature="0" />
      <path
         d="m 202.75268,32.427976 0,4.657752 -6.82415,1.263732 q 0.93877,1.263731 1.55258,3.105168 0.61382,1.841437 0.61382,3.899514 0,6.17423 -4.26058,9.712677 -4.26058,3.538448 -11.73465,3.538448 -1.91365,0 -3.46624,-0.288853 -2.7441,1.697011 -2.7441,3.971727 0,1.372051 1.26373,2.058077 1.29984,0.686025 4.72997,0.686025 l 6.96857,0 q 6.60751,0 10.03764,2.816316 3.43013,2.816315 3.43013,8.123987 0,6.788042 -5.59652,10.470917 -5.59653,3.682874 -16.17577,3.682874 -8.16009,0 -12.45678,-2.888529 -4.29668,-2.888529 -4.29668,-8.232307 0,-3.682874 2.31082,-6.210337 2.34693,-2.491356 6.5353,-3.466234 -1.69701,-0.722132 -2.81632,-2.310823 -1.0832,-1.624797 -1.0832,-3.394021 0,-2.23861 1.26373,-3.791194 1.26374,-1.552584 3.75509,-3.069062 -3.10517,-1.335944 -5.05492,-4.332793 -1.91365,-3.032955 -1.91365,-7.076895 0,-6.49919 4.08004,-10.073744 4.11616,-3.574554 11.69854,-3.574554 1.69701,0 3.53845,0.252746 1.87755,0.216639 2.81632,0.469386 l 13.82883,0 z m -31.37664,46.144246 q 0,2.744102 2.45525,4.224473 2.49135,1.480371 6.96857,1.480371 6.93247,0 10.32649,-1.985864 3.39402,-1.985863 3.39402,-5.271564 0,-2.599676 -1.87754,-3.718981 -1.84144,-1.083198 -6.89636,-1.083198 l -6.42698,0 q -3.64677,0 -5.81316,1.69701 -2.13029,1.733117 -2.13029,4.657753 z m 3.64676,-33.21808 q 0,3.755087 1.91365,5.777057 1.94976,2.02197 5.56042,2.02197 7.36575,0 7.36575,-7.871241 0,-3.899513 -1.84144,-5.993697 -1.80533,-2.13029 -5.52431,-2.13029 -3.68287,0 -5.59652,2.094184 -1.87755,2.094183 -1.87755,6.102017 z"
         style="font-style:normal;font-variant:normal;font-weight:600;font-stretch:normal;font-family:'Open Sans';-inkscape-font-specification:'Open Sans Semi-Bold';letter-spacing:-4.62164593px"
         id="path4822"
         inkscape:connector-curvature="0" />
      <path
         d="m 214.05405,72.361885 -8.48506,0 0,-39.933909 8.48506,0 0,39.933909 z M 205.0635,21.848739 q 0,-2.274716 1.22762,-3.502341 1.26374,-1.227624 3.57456,-1.227624 2.23861,0 3.46623,1.227624 1.26373,1.227625 1.26373,3.502341 0,2.166397 -1.26373,3.430128 -1.22762,1.227625 -3.46623,1.227625 -2.31082,0 -3.57456,-1.227625 -1.22762,-1.263731 -1.22762,-3.430128 z"
         style="font-style:normal;font-variant:normal;font-weight:600;font-stretch:normal;font-family:'Open Sans';-inkscape-font-specification:'Open Sans Semi-Bold';letter-spacing:-4.62164593px"
         id="path4824"
         inkscape:connector-curvature="0" />
      <path
         d="m 256.73206,72.361885 -8.52116,0 0,-24.552494 q 0,-4.621646 -1.87755,-6.896362 -1.84143,-2.274717 -5.88537,-2.274717 -5.37989,0 -7.87124,3.177382 -2.49136,3.177382 -2.49136,10.65145 l 0,19.894741 -8.48505,0 0,-39.933909 6.64361,0 1.19152,5.235458 0.43328,0 q 1.80533,-2.852422 5.12714,-4.405006 3.32181,-1.552584 7.36575,-1.552584 14.37043,0 14.37043,14.623176 l 0,26.032865 z"
         style="font-style:normal;font-variant:normal;font-weight:600;font-stretch:normal;font-family:'Open Sans';-inkscape-font-specification:'Open Sans Semi-Bold';letter-spacing:-4.62164593px"
         id="path4826"
         inkscape:connector-curvature="0" />
      <path
         d="m 288.90305,72.361885 -1.69701,-5.560418 -0.28886,0 q -2.88852,3.646768 -5.81316,4.982712 -2.92464,1.299838 -7.51017,1.299838 -5.88538,0 -9.20719,-3.177381 -3.2857,-3.177382 -3.2857,-8.990546 0,-6.17423 4.58554,-9.315505 4.58554,-3.141275 13.97326,-3.430128 l 6.89636,-0.216639 0,-2.13029 q 0,-3.827301 -1.80533,-5.704845 -1.76923,-1.91365 -5.52431,-1.91365 -3.06907,0 -5.88538,0.902665 -2.81632,0.902666 -5.41599,2.13029 l -2.7441,-6.06591 q 3.24959,-1.697011 7.113,-2.563569 3.8634,-0.902665 7.29353,-0.902665 7.6185,0 11.4819,3.321808 3.89952,3.321808 3.89952,10.43481 l 0,26.899423 -6.06591,0 z m -12.63732,-5.777057 q 4.62165,0 7.40186,-2.56357 2.81631,-2.599675 2.81631,-7.257428 l 0,-3.466234 -5.12713,0.216639 q -5.9937,0.21664 -8.7378,2.02197 -2.708,1.769224 -2.708,5.452098 0,2.671889 1.58869,4.15226 1.58869,1.444265 4.76607,1.444265 z"
         style="font-style:normal;font-variant:normal;font-weight:600;font-stretch:normal;font-family:'Open Sans';-inkscape-font-specification:'Open Sans Semi-Bold';letter-spacing:-4.62164593px"
         id="path4828"
         inkscape:connector-curvature="0" />
      <path
         d="m 317.06619,66.223762 q 3.10517,0 6.21034,-0.974879 l 0,6.39087 q -1.40816,0.613812 -3.64677,1.010985 -2.2025,0.433279 -4.58554,0.433279 -12.05961,0 -12.05961,-12.709526 l 0,-21.519539 -5.45209,0 0,-3.755087 5.84927,-3.105169 2.88853,-8.448946 5.23545,0 0,8.882226 11.37359,0 0,6.426976 -11.37359,0 0,21.375113 q 0,3.069061 1.51648,4.549432 1.55259,1.444265 4.04394,1.444265 z"
         style="font-style:normal;font-variant:normal;font-weight:600;font-stretch:normal;font-family:'Open Sans';-inkscape-font-specification:'Open Sans Semi-Bold';letter-spacing:-4.62164593px"
         id="path4830"
         inkscape:connector-curvature="0" />
      <path
         d="m 335.08339,72.361885 -8.48505,0 0,-39.933909 8.48505,0 0,39.933909 z m -8.99055,-50.513146 q 0,-2.274716 1.22763,-3.502341 1.26373,-1.227624 3.57455,-1.227624 2.23861,0 3.46624,1.227624 1.26373,1.227625 1.26373,3.502341 0,2.166397 -1.26373,3.430128 -1.22763,1.227625 -3.46624,1.227625 -2.31082,0 -3.57455,-1.227625 -1.22763,-1.263731 -1.22763,-3.430128 z"
         style="font-style:normal;font-variant:normal;font-weight:600;font-stretch:normal;font-family:'Open Sans';-inkscape-font-specification:'Open Sans Semi-Bold';letter-spacing:-4.62164593px"
         id="path4832"
         inkscape:connector-curvature="0" />
      <path
         d="m 378.05026,52.322717 q 0,9.784891 -5.01882,15.273096 -5.01882,5.488204 -13.97326,5.488204 -5.59652,0 -9.89321,-2.527462 -4.29668,-2.527463 -6.60751,-7.257429 -2.31082,-4.729965 -2.31082,-10.976409 0,-9.712678 4.98271,-15.164776 4.98271,-5.452097 14.04547,-5.452097 8.66559,0 13.72051,5.596524 5.05493,5.560418 5.05493,15.020349 z m -29.06582,0 q 0,13.828831 10.21817,13.828831 10.10985,0 10.10985,-13.828831 0,-13.684405 -10.18206,-13.684405 -5.34378,0 -7.76292,3.538448 -2.38304,3.538448 -2.38304,10.145957 z"
         style="font-style:normal;font-variant:normal;font-weight:600;font-stretch:normal;font-family:'Open Sans';-inkscape-font-specification:'Open Sans Semi-Bold';letter-spacing:-4.62164593px"
         id="path4834"
         inkscape:connector-curvature="0" />
      <path
         d="m 418.34524,72.361885 -8.52116,0 0,-24.552494 q 0,-4.621646 -1.87754,-6.896362 -1.84144,-2.274717 -5.88538,-2.274717 -5.37989,0 -7.87124,3.177382 -2.49136,3.177382 -2.49136,10.65145 l 0,19.894741 -8.48505,0 0,-39.933909 6.64361,0 1.19152,5.235458 0.43328,0 q 1.80533,-2.852422 5.12714,-4.405006 3.32181,-1.552584 7.36575,-1.552584 14.37043,0 14.37043,14.623176 l 0,26.032865 z"
         style="font-style:normal;font-variant:normal;font-weight:600;font-stretch:normal;font-family:'Open Sans';-inkscape-font-specification:'Open Sans Semi-Bold';letter-spacing:-4.62164593px"
         id="path4836"
         inkscape:connector-curvature="0" />
    </g>
  </g>
</svg>
